<svg xmlns="http://www.w3.org/2000/svg" viewBox="0 0 30 30"><defs><style>.cls-1{fill:#fff;}</style></defs><title>browser-icon</title><g id="圖層_2" data-name="圖層 2"><g id="圖層_1-2" data-name="圖層 1"><rect width="30" height="30"/><path class="cls-1" d="M8.94141,19.77539V12.36914H6.44531V10.89258h6.78516v1.47656H10.71094v7.40625Z"/><path class="cls-1" d="M16.18359,19.93945a1.85287,1.85287,0,0,1-1.66406-.84375,2.05773,2.05773,0,0,1-.32812-1.14843,2.08665,2.08665,0,0,1,1.60547-2.00391,9.42887,9.42887,0,0,1,2.26171-.48047q-.0703-1.14843-1.13671-1.16016a4.00423,4.00423,0,0,0-1.85157.63282l-.63281-1.16016a5.36943,5.36943,0,0,1,2.80078-.89062,2.3233,2.3233,0,0,1,2.543,2.29687,6.05372,6.05372,0,0,1,.03516.668v3.92578H18.38672l-.14063-.71484h-.03515A3.15839,3.15839,0,0,1,16.18359,19.93945Zm.57422-1.37109a1.93426,1.93426,0,0,0,1.30078-.668V16.55273q-2.10937.33985-2.17968,1.25391a.69175.69175,0,0,0,.73828.75A.85422.85422,0,0,0,16.75781,18.56836Z"/><path class="cls-1" d="M22.51172,11.9707a.9679.9679,0,0,1-.9375-.51562.90353.90353,0,0,1-.11719-.44531.85322.85322,0,0,1,.57422-.85547,1.22539,1.22539,0,0,1,.48047-.09375.97818.97818,0,0,1,.94922.51562,1.00542,1.00542,0,0,1,.09375.4336.87331.87331,0,0,1-.53907.84375A1.1112,1.1112,0,0,1,22.51172,11.9707Zm-.89063,7.80469V13.06055h1.7461v6.71484Z"/></g></g></svg>